Modern Talking - Year Of The Dragon (Special Russian Version) 
http://en.wikipedia.org/wiki/Year_of_the_Dragon_(Modern_Talking_album)

Tracklist:

01. Modern Talking - China In Her Eye' s ( Album Version ) (4:27)
02. Modern Talking - Don' t Take Away My Heart (3:40)
03. Modern Talking - It' s You' r Smile (3:34)
04. Modern Talking - Cosmic Girl (3:41)
05. Modern Talking - After You' r Love Is Gone (3:44)
06. Modern Talking - Girl Out Of My Dream' s (3:58)
07. Modern Talking - My Lonely Girl (4:02)
08. Modern Talking - No Face No Name No Number (4:00)
09. Modern Talking - Can' t Let You Go (4:23)
10. Modern Talking - Part Time Lover (3:12)
11. Modern Talking - Time Is On My Side (3:39)
12. Modern Talking - I' ll Never Fall In Love Again (4:41)
13. Modern Talking - Avec Toi (3:55)
14. Modern Talking - I' m Not Guilty (3:39)
15. Modern Talking - Fight For The Right Love (3:44)
16. Modern Talking - Walking In The Rain Of Paris (3:44)
17. Modern Talking - Fly To The Moon (3:36)
18. Modern Talking - Love Is Forever (3:27)
19. Modern Talking - China In Her Eye' s ( Feat. Eric Singleton ) (3:49)

EAC LOG:

Exact Audio Copy V1.0 beta 3 from 29. August 2011

EAC extraction logfile from 11. May 2013, 18:12

Modern Talking / Year Of The Dragon (Special Russian Version)

Used drive : TSSTcorpCDDVDW TS-L633C Adapter: 0 ID: 0

Read mode : Secure
Utilize accurate stream : Yes
Defeat audio cache : Yes
Make use of C2 pointers : No

Read offset correction : 6
Overread into Lead-In and Lead-Out : No
Fill up missing offset samples with silence : Yes
Delete leading and trailing silent blocks : No
Null samples used in CRC calculations : Yes
Used interface : Native Win32 interface for Win NT & 2000

Used output format : Internal WAV Routines
Sample format : 44.100 Hz; 16 Bit; Stereo


TOC of the extracted CD

 Track | Start | Length | Start sector | End sector 
 ---------------------------------------------------------
 1 | 0:00.00 | 4:27.00 | 0 | 20024 
 2 | 4:27.00 | 3:40.00 | 20025 | 36524 
 3 | 8:07.00 | 3:34.00 | 36525 | 52574 
 4 | 11:41.00 | 3:41.00 | 52575 | 69149 
 5 | 15:22.00 | 3:44.00 | 69150 | 85949 
 6 | 19:06.00 | 3:58.00 | 85950 | 103799 
 7 | 23:04.00 | 4:02.00 | 103800 | 121949 
 8 | 27:06.00 | 4:00.00 | 121950 | 139949 
 9 | 31:06.00 | 4:23.00 | 139950 | 159674 
 10 | 35:29.00 | 3:12.00 | 159675 | 174074 
 11 | 38:41.00 | 3:39.00 | 174075 | 190499 
 12 | 42:20.00 | 4:41.00 | 190500 | 211574 
 13 | 47:01.00 | 3:55.00 | 211575 | 229199 
 14 | 50:56.00 | 3:39.00 | 229200 | 245624 
 15 | 54:35.00 | 3:44.00 | 245625 | 262424 
 16 | 58:19.00 | 3:44.00 | 262425 | 279224 
 17 | 62:03.00 | 3:36.00 | 279225 | 295424 
 18 | 65:39.00 | 3:27.00 | 295425 | 310949 
 19 | 69:06.00 | 3:49.00 | 310950 | 328124 


Range status and errors

Selected range

 Filename C:Modern Talking - Year Of The Dragon (Special Russian Version)Modern Talking - Year Of The Dragon (Special Russian Version).wav

 Peak level 100.0 %
 Extraction speed 4.3 X
 Range quality 100.0 %
 Test CRC 27E47935
 Copy CRC 27E47935
 Copy OK

No errors occurred


AccurateRip summary

Track 1 accurately ripped (confidence 4) [66C6343C] (AR v1)
Track 2 accurately ripped (confidence 4) [90E65271] (AR v1)
Track 3 accurately ripped (confidence 4) [DEA92590] (AR v1)
Track 4 accurately ripped (confidence 4) [0E6D049B] (AR v1)
Track 5 accurately ripped (confidence 4) [66BD37F5] (AR v1)
Track 6 accurately ripped (confidence 4) [2F708958] (AR v1)
Track 7 accurately ripped (confidence 4) [64255BFD] (AR v1)
Track 8 accurately ripped (confidence 4) [37AE1D79] (AR v1)
Track 9 accurately ripped (confidence 4) [37C7DA77] (AR v1)
Track 10 accurately ripped (confidence 4) [DA602BA9] (AR v1)
Track 11 accurately ripped (confidence 4) [09233FBE] (AR v1)
Track 12 accurately ripped (confidence 4) [CF070F1F] (AR v1)
Track 13 accurately ripped (confidence 4) [36074F55] (AR v1)
Track 14 accurately ripped (confidence 4) [4339A719] (AR v1)
Track 15 accurately ripped (confidence 4) [48F8B919] (AR v1)
Track 16 accurately ripped (confidence 4) [9A56BB1E] (AR v1)
Track 17 accurately ripped (confidence 4) [27437502] (AR v1)
Track 18 accurately ripped (confidence 4) [7EEC5963] (AR v1)
Track 19 accurately ripped (confidence 4) [1BE15A70] (AR v1)

All tracks accurately ripped

End of status report